<?xml version="1.0" standalone="no"?>
<!DOCTYPE svg PUBLIC "-//W3C//DTD SVG 20010904//EN"
 "http://www.w3.org/TR/2001/REC-SVG-20010904/DTD/svg10.dtd">
<svg version="1.0" xmlns="http://www.w3.org/2000/svg"
 width="200.000000pt" height="200.000000pt" viewBox="0 0 200.000000 200.000000"
 preserveAspectRatio="xMidYMid meet">
<metadata>
Created by potrace 1.14, written by Peter Selinger 2001-2017
</metadata>
<g transform="translate(0.000000,200.000000) scale(0.100000,-0.100000)"
fill="#000000" stroke="none">
<path d="M0 1000 l0 -1000 1000 0 1000 0 0 1000 0 1000 -1000 0 -1000 0 0
-1000z m934 637 c7 -11 7 -20 0 -27 -8 -8 -10 -4 -10 12 1 14 -5 23 -14 23 -9
0 -15 -9 -14 -22 0 -12 -3 -20 -8 -17 -12 8 -10 28 4 42 15 15 28 11 42 -11z
m96 3 c-13 -8 -12 -10 5 -11 l20 -1 -20 -6 -20 -5 20 -8 c16 -6 17 -8 3 -8 -9
-1 -20 4 -23 9 -9 15 2 40 17 40 9 0 8 -3 -2 -10z m155 -9 c3 -5 1 -12 -5 -16
-5 -3 -10 1 -10 9 0 18 6 21 15 7z m-380 -21 c3 -6 -2 -13 -11 -17 -16 -6 -16
-7 2 -14 16 -6 16 -8 2 -8 -21 -1 -32 15 -24 34 6 17 22 20 31 5z m338 -12
c-2 -5 -10 -8 -18 -8 -8 0 -16 3 -18 8 -3 4 5 7 18 7 13 0 21 -3 18 -7z m64
-10 c-3 -8 -6 -5 -6 6 -1 11 2 17 5 13 3 -3 4 -12 1 -19z m30 -10 c-3 -8 -6
-5 -6 6 -1 11 2 17 5 13 3 -3 4 -12 1 -19z m-553 -40 c8 -5 7 -8 -1 -8 -7 0
-17 9 -23 19 -14 27 -12 41 2 16 6 -11 16 -23 22 -27z m27 25 c13 -16 12 -17
-3 -4 -10 7 -18 15 -18 17 0 8 8 3 21 -13z m646 -3 c4 -13 3 -13 -6 0 -10 13
-13 12 -26 -4 -16 -21 -19 -18 -9 9 8 19 36 16 41 -5z m-754 -15 c-3 -9 -8
-14 -10 -11 -3 3 -2 9 2 15 9 16 15 13 8 -4z m42 -26 c0 -7 -8 -14 -18 -15
-12 -1 -13 -1 -2 3 17 5 20 19 5 26 -6 3 -5 4 2 3 7 -2 13 -9 13 -17z m791 10
c3 -6 0 -18 -9 -26 -15 -16 -37 -10 -37 9 0 6 9 8 20 5 22 -6 28 8 8 16 -10 4
-10 6 -1 6 6 1 15 -4 19 -10z m20 -41 c-9 -12 -16 -19 -16 -15 0 11 24 47 28
42 2 -2 -3 -14 -12 -27z m-899 -18 c-1 -11 -4 -20 -8 -20 -4 0 -6 11 -5 24 0
13 4 22 8 20 4 -2 6 -13 5 -24z m27 -9 c3 -5 -2 -15 -12 -22 -15 -12 -16 -12
-5 2 7 9 10 19 6 22 -3 4 -4 7 0 7 3 0 8 -4 11 -9z m-89 -11 c-4 -6 -1 -19 6
-28 12 -16 12 -16 -5 0 -16 14 -15 38 0 38 3 0 2 -5 -1 -10z m1030 -28 c-17
-15 -18 -15 -6 0 7 9 9 23 5 30 -6 10 -4 11 7 0 11 -10 10 -15 -6 -30z m-1044
-19 c13 -16 12 -17 -3 -4 -10 7 -18 15 -18 17 0 8 8 3 21 -13z m349 -7 c5 -14
19 -26 32 -29 17 -3 15 -5 -9 -6 l-33 -1 0 -110 c0 -90 3 -110 15 -110 9 0 12
-6 9 -15 -4 -8 -1 -15 5 -15 6 0 11 -7 11 -15 0 -8 -6 -15 -12 -15 -7 0 7 -14
32 -30 44 -30 46 -30 140 -24 52 3 129 7 170 9 43 2 76 8 78 14 4 13 22 5 22
-10 0 -6 -4 -7 -10 -4 -5 3 -10 1 -10 -4 0 -6 -6 -11 -12 -11 -7 0 -26 -7 -42
-15 -20 -11 -33 -12 -40 -5 -5 5 -46 9 -91 8 -64 -1 -71 -2 -36 -7 38 -5 42
-8 29 -19 -11 -9 -18 -10 -23 -2 -8 13 -272 14 -280 0 -10 -16 -35 -12 -35 5
0 9 -11 21 -25 27 -32 14 -29 42 5 45 l25 2 -24 -7 -24 -8 26 -17 c18 -12 47
-17 93 -17 70 0 79 7 22 19 -18 4 -32 11 -30 16 2 6 -7 13 -20 17 l-23 6 23 1
c12 1 22 7 22 15 0 8 3 21 6 29 3 10 -2 18 -15 22 -19 6 -21 13 -19 78 l2 72
3 -65 c7 -114 23 -93 23 29 0 97 -2 112 -15 107 -12 -4 -14 0 -9 22 12 50 29
57 44 18z m-383 7 c-4 -3 -1 -13 6 -22 11 -14 10 -14 -5 -2 -16 12 -16 31 -1
31 4 0 3 -3 0 -7z m689 -10 c-3 -8 -6 -19 -6 -24 0 -5 -19 -9 -41 -9 -37 0
-41 -2 -36 -21 5 -17 3 -18 -10 -7 -13 10 -17 10 -20 1 -3 -7 -9 -13 -14 -13
-4 0 -6 7 -3 15 5 11 2 13 -10 9 -9 -3 -16 -11 -17 -18 0 -6 -4 -2 -9 9 l-9
20 -1 -20 -1 -20 -9 20 c-7 16 -9 17 -9 3 -1 -9 -5 -19 -10 -22 -5 -4 -7 3 -4
13 3 13 -1 21 -14 24 -11 3 -6 5 13 6 16 0 35 6 42 13 9 9 17 9 35 -1 31 -16
93 -1 89 21 -1 11 6 16 23 16 19 0 25 -5 21 -15z m118 9 c-18 -12 -23 -50 -8
-56 11 -4 13 1 8 19 -3 14 -2 25 4 25 17 0 33 -27 25 -45 -4 -13 -3 -16 5 -11
9 5 12 -6 12 -38 0 -25 -4 -46 -10 -46 -5 0 -10 7 -10 16 0 8 -4 12 -10 9 -6
-3 -10 4 -10 17 0 18 2 20 10 8 13 -21 19 -9 8 20 -7 20 -11 22 -18 10 -5 -8
-10 -24 -10 -35 0 -23 -18 -45 -34 -45 -6 0 -6 4 1 8 19 12 -3 82 -25 83 -15
1 -15 2 1 6 9 2 24 18 32 34 9 16 21 29 28 29 8 0 9 -3 1 -8z m47 -9 c13 -17
13 -17 -6 -3 -11 8 -22 16 -24 17 -2 2 0 3 6 3 6 0 17 -8 24 -17z m307 3 c-2
0 -14 -10 -27 -21 l-25 -20 20 26 c10 15 23 25 27 22 5 -3 7 -6 5 -7z m-1188
-31 c14 -19 14 -19 -2 -6 -10 7 -18 18 -18 24 0 6 1 8 3 6 1 -2 9 -13 17 -24z
m909 -70 c-1 -60 -6 -50 -12 23 -2 32 -1 48 4 40 5 -7 8 -35 8 -63z m-170 51
c-2 -2 -21 -6 -42 -10 -27 -5 -37 -4 -32 3 3 6 22 11 42 11 20 0 34 -2 32 -4z
m-739 -21 c12 -15 6 -35 -12 -35 -6 0 -8 9 -5 20 3 11 1 20 -4 20 -5 0 -9 -5
-9 -12 0 -6 -3 -9 -6 -5 -7 7 4 27 15 27 5 0 14 -7 21 -15z m468 -16 c25 -2
26 -2 3 -6 -19 -4 -22 -10 -19 -33 5 -31 -16 -50 -26 -24 -4 10 -2 12 6 8 8
-5 9 5 5 37 -3 24 -4 38 -1 32 3 -7 18 -14 32 -14z m765 -11 c3 -8 -5 -14 -20
-14 -22 -2 -23 -1 -6 12 22 17 20 16 26 2z m-1258 -36 c-3 -3 -11 0 -18 7 -9
10 -8 11 6 5 10 -3 15 -9 12 -12z m592 -8 c-3 -3 -12 -4 -19 -1 -8 3 -5 6 6 6
11 1 17 -2 13 -5z m293 -9 c10 -12 10 -18 0 -30 -7 -9 -19 -14 -26 -11 -7 3
-15 0 -18 -7 -2 -7 -5 -1 -5 14 -1 23 15 49 30 49 4 0 12 -7 19 -15z m-179
-12 c12 -16 12 -17 -1 -7 -8 6 -22 14 -30 17 -13 5 -12 6 1 6 9 1 23 -7 30
-16z m109 -13 c0 -5 -7 -7 -15 -4 -10 4 -15 0 -15 -11 0 -9 5 -13 10 -10 15
10 20 -16 11 -55 l-9 -35 -2 30 -3 30 -7 -35 c-6 -30 -8 -27 -9 26 0 33 2 64
6 67 10 10 33 8 33 -3z m-90 -35 c0 -26 -14 -33 -25 -15 -9 14 1 40 15 40 5 0
10 -11 10 -25z m190 21 c0 -2 -8 -10 -17 -17 -16 -13 -17 -12 -4 4 13 16 21
21 21 13z m-35 -68 c19 2 35 8 35 12 0 4 -12 6 -27 4 -28 -4 -28 -4 2 6 21 7
31 6 37 -2 8 -15 -24 -49 -33 -36 -11 17 -44 4 -44 -17 0 -23 34 -33 46 -13 6
9 9 9 9 1 0 -17 -31 -32 -81 -38 -29 -3 -35 -2 -19 3 20 6 25 15 27 42 2 30 1
31 -6 10 -4 -14 -16 -26 -26 -28 -18 -3 -19 -2 -2 8 9 6 17 20 17 30 0 11 5
20 10 20 6 0 11 10 11 23 2 20 2 19 6 -3 3 -23 8 -25 38 -22z m-175 -25 c-11
-17 -11 -17 -6 0 3 10 6 24 7 30 0 9 2 9 5 0 3 -7 0 -20 -6 -30z m477 -5 c-3
-8 -6 -5 -6 6 -1 11 2 17 5 13 3 -3 4 -12 1 -19z m63 -8 c0 -24 -18 -36 -33
-21 -9 9 -7 10 7 5 16 -6 18 -4 14 19 -3 15 -1 24 3 21 5 -3 9 -14 9 -24z m40
5 c0 -14 -2 -25 -4 -25 -2 0 -6 11 -8 25 -3 14 -1 25 3 25 5 0 9 -11 9 -25z
m58 0 c-3 -3 -9 2 -12 12 -6 14 -5 15 5 6 7 -7 10 -15 7 -18z m-660 -22 c-10
-2 -26 -2 -35 0 -10 3 -2 5 17 5 19 0 27 -2 18 -5z m502 -9 c0 -2 -7 -4 -15
-4 -8 0 -15 4 -15 10 0 5 7 7 15 4 8 -4 15 -8 15 -10z m-617 -1 c-13 -2 -33
-2 -45 0 -13 2 -3 4 22 4 25 0 35 -2 23 -4z m158 -12 c7 12 9 12 9 0 0 -8 7
-11 20 -8 11 3 18 1 14 -4 -9 -14 -58 -10 -80 7 -18 14 -18 15 5 4 19 -10 25
-9 32 1z m444 -118 c-12 -34 -33 -149 -39 -223 l-6 -75 24 59 c34 82 81 128
100 97 3 -4 1 -49 -5 -100 -13 -103 -6 -166 17 -157 18 7 18 -8 1 -23 -11 -8
-18 -6 -33 10 -16 18 -19 37 -18 135 0 88 -3 111 -12 103 -16 -13 -60 -124
-69 -173 -4 -21 -12 -35 -19 -33 -27 10 -6 279 30 365 13 33 42 47 29 15z
m355 -47 c0 -2 -7 -21 -16 -42 -15 -36 -15 -44 7 -129 24 -97 22 -126 -12
-168 -38 -49 -79 -29 -79 38 0 41 29 117 49 129 16 10 14 -9 -3 -23 -14 -12
-36 -84 -36 -121 0 -28 28 -37 45 -14 8 11 17 36 20 57 7 40 -15 212 -25 199
-4 -4 -19 -38 -35 -77 -30 -74 -45 -99 -45 -74 0 8 4 19 8 25 5 5 23 45 41 89
32 78 55 115 73 115 4 0 8 -2 8 -4z m-665 -28 c-11 -36 -25 -45 -25 -17 0 27
7 39 22 39 5 0 6 -10 3 -22z m68 -42 c-4 -21 -1 -25 23 -29 l29 -4 -32 -7
c-39 -10 -43 -22 -50 -161 -4 -86 -2 -114 9 -129 14 -18 15 -18 36 5 14 14 22
18 22 9 0 -20 -31 -50 -51 -50 -47 0 -65 101 -45 253 6 47 5 57 -8 57 -17 0
-34 -72 -39 -165 -5 -87 -22 -78 -25 13 -4 106 12 154 57 168 23 7 38 21 47
43 15 37 34 34 27 -3z m-253 21 c0 -2 -7 -19 -17 -37 -15 -32 -15 -38 7 -126
21 -80 22 -97 11 -133 -21 -71 -93 -93 -108 -33 -8 33 11 106 38 144 28 39 33
30 10 -16 -43 -84 -35 -172 11 -116 18 22 20 35 16 116 -7 133 -17 141 -57 45
-23 -58 -36 -78 -47 -74 -11 4 -14 -4 -14 -35 0 -22 -3 -47 -6 -56 -4 -10 -1
-16 10 -16 19 0 40 -36 32 -56 -8 -21 -26 -17 -26 7 0 35 -23 15 -37 -33 -16
-55 -61 -98 -103 -98 -31 0 -72 31 -50 38 6 2 17 -1 23 -7 6 -6 18 -11 27 -11
30 0 80 75 80 120 0 17 -4 18 -30 8 -17 -5 -43 -23 -58 -39 -15 -16 -30 -29
-34 -29 -37 0 53 87 98 96 30 5 34 10 34 38 0 17 3 42 6 56 3 15 -4 8 -20 -21
-44 -80 -80 -89 -98 -23 -14 51 27 214 54 214 11 0 10 -15 -7 -95 -17 -83 -19
-135 -5 -135 10 0 49 76 99 193 11 26 25 47 30 47 14 0 14 -10 0 -64 -6 -24
-9 -54 -7 -67 2 -18 13 -1 41 66 45 107 62 135 82 135 8 0 15 -2 15 -3z m94
-27 c-6 -28 -4 -30 22 -31 l29 -1 -32 -10 c-38 -13 -42 -25 -50 -149 -8 -139
4 -173 49 -132 13 12 18 13 18 3 0 -20 -31 -50 -51 -50 -48 0 -64 87 -46 243
6 57 5 67 -8 67 -8 0 -15 5 -15 10 0 6 9 10 20 10 13 0 25 12 34 35 18 43 38
47 30 5z m324 -38 c-13 -55 -28 -69 -28 -28 0 69 -62 17 -81 -68 -24 -107 19
-175 70 -110 16 20 21 22 21 10 0 -21 -44 -66 -65 -66 -9 0 -27 11 -40 25 -65
64 5 273 84 252 13 -3 22 3 30 21 18 38 22 21 9 -36z m302 23 c27 -32 -4 -110
-53 -137 -30 -16 -30 -3 2 31 51 55 52 142 0 95 -32 -29 -49 -80 -49 -150 0
-55 3 -65 22 -75 19 -10 25 -8 44 15 30 35 38 33 19 -4 -31 -60 -108 -44 -121
25 -13 71 24 173 74 199 35 19 47 20 62 1z m-1135 -94 c-3 -25 -8 -55 -11 -66
-3 -11 8 3 24 30 34 58 56 79 74 73 10 -4 12 -34 9 -126 -3 -107 -1 -122 13
-122 21 0 21 -19 0 -27 -8 -3 -23 2 -32 11 -14 13 -17 37 -17 121 0 58 -1 105
-2 105 -6 0 -47 -89 -62 -132 -9 -26 -20 -46 -26 -45 -6 1 -10 43 -10 100 0
53 -1 97 -3 97 -7 0 -51 -110 -67 -168 -10 -36 -23 -61 -29 -59 -15 5 -13 195
2 225 23 41 35 26 28 -35 l-7 -58 25 50 c48 95 103 111 91 26z m-270 -23 l-6
-63 31 53 c17 28 35 53 40 54 35 5 35 4 35 -122 0 -115 1 -125 18 -122 16 3
17 0 7 -17 -13 -25 -23 -26 -44 -6 -19 20 -30 90 -24 165 6 79 -12 65 -49 -41
-40 -113 -56 -107 -51 21 2 55 3 100 1 100 -9 0 -45 -89 -62 -150 -24 -85 -27
-89 -44 -66 -12 17 -14 16 -30 -8 -22 -33 -75 -36 -103 -5 -27 30 -25 129 4
186 37 71 99 96 123 51 l12 -22 8 22 c5 12 14 22 20 22 8 0 10 -18 5 -62 l-7
-63 24 50 c29 61 51 85 79 85 19 0 20 -4 13 -62z"/>
<path d="M800 1390 c0 -11 5 -20 10 -20 6 0 10 9 10 20 0 11 -4 20 -10 20 -5
0 -10 -9 -10 -20z"/>
<path d="M1225 1330 c-3 -5 1 -10 9 -10 9 0 16 5 16 10 0 6 -4 10 -9 10 -6 0
-13 -4 -16 -10z"/>
<path d="M1265 1229 c-4 -6 -5 -12 -2 -15 2 -3 7 2 10 11 7 17 1 20 -8 4z"/>
<path d="M166 701 c-18 -20 -41 -89 -32 -98 13 -13 39 10 57 52 27 60 12 87
-25 46z"/>
<path d="M203 605 c-12 -14 -33 -25 -46 -25 -30 0 -38 -18 -28 -57 11 -40 38
-41 73 -3 23 26 28 40 26 71 l-3 38 -22 -24z"/>
</g>
</svg>
